<?xml version="1.0" standalone="no"?>
<!DOCTYPE svg PUBLIC "-//W3C//DTD SVG 20010904//EN"
 "http://www.w3.org/TR/2001/REC-SVG-20010904/DTD/svg10.dtd">
<svg version="1.0" xmlns="http://www.w3.org/2000/svg"
 width="512.000000pt" height="512.000000pt" viewBox="0 0 512.000000 512.000000"
 preserveAspectRatio="xMidYMid meet">
<metadata>
Created by potrace 1.11, written by Peter Selinger 2001-2013
</metadata>
<g transform="translate(0.000000,512.000000) scale(0.100000,-0.100000)"
fill="#000000" stroke="none">
<path d="M2350 5113 c-729 -70 -1343 -399 -1797 -963 -275 -343 -457 -765
-530 -1230 -25 -162 -25 -558 0 -720 108 -695 450 -1270 1002 -1684 346 -260
730 -420 1167 -487 113 -18 187 -22 353 -22 216 0 323 9 505 44 830 161 1539
736 1865 1513 l44 106 -1642 0 -1642 0 445 445 445 445 -445 445 -445 445
1643 0 c903 0 1642 2 1642 4 0 13 -96 230 -126 285 -112 202 -191 320 -312
463 -496 590 -1217 924 -1977 916 -88 0 -176 -3 -195 -5z m-1198 -2285 c2 -4
70 8 152 27 82 19 153 35 158 35 4 0 -12 -41 -37 -90 -25 -50 -56 -115 -69
-144 l-24 -54 111 -89 c61 -48 117 -93 126 -99 12 -9 -10 -17 -105 -39 -65
-15 -136 -31 -156 -36 l-38 -10 -2 -159 -3 -160 -125 100 -124 99 -41 -33
c-22 -18 -78 -63 -125 -100 l-85 -68 -3 160 -2 161 -38 10 c-43 12 -262 61
-270 61 -2 0 52 45 122 101 69 55 126 103 126 105 0 2 -30 64 -67 138 -37 75
-65 138 -62 141 5 4 229 -43 290 -61 12 -3 32 30 85 142 l69 147 67 -139 c37
-76 69 -142 70 -146z"/>
</g>
</svg>
